<svg width="28" height="27" viewBox="0 0 28 27" fill="none" xmlns="http://www.w3.org/2000/svg">
<path d="M2 0C0.895386 0 0 0.919968 0 2.05479V3.08219H24V2.05479C24 0.919968 23.1046 0 22 0H2Z" fill="black"/>
<path fill-rule="evenodd" clip-rule="evenodd" d="M24 5.34247H0V12.9452C0 14.08 0.895386 15 2 15H11.9355C13.4082 12.0366 16.4663 10 20 10C21.4369 10 22.795 10.3367 24 10.9355V5.34247ZM2.40002 12.637C2.40002 12.2398 2.71338 11.9178 3.09998 11.9178H5.90002C6.28662 11.9178 6.59998 12.2398 6.59998 12.637C6.59998 13.0342 6.28662 13.3562 5.90002 13.3562H3.09998C2.71338 13.3562 2.40002 13.0342 2.40002 12.637Z" fill="black"/>
<path d="M15.7343 18.1683C15.7343 18.6009 16.085 18.9516 16.5177 18.9516C16.7379 18.9516 16.9209 18.9211 17.0665 18.8602C17.2122 18.7993 17.3205 18.7079 17.3916 18.586C17.4644 18.4642 17.5008 18.3127 17.5008 18.1317C17.5008 17.9489 17.4644 17.7948 17.3916 17.6694C17.3205 17.5439 17.2113 17.4489 17.0638 17.3844C16.9182 17.3181 16.7344 17.2849 16.5123 17.2849C16.0826 17.2849 15.7343 17.6333 15.7343 18.0629V18.1683Z" fill="black"/>
<path fill-rule="evenodd" clip-rule="evenodd" d="M20 27C24.4183 27 28 23.4183 28 19C28 14.5817 24.4183 11 20 11C15.5817 11 12 14.5817 12 19C12 23.4183 15.5817 27 20 27ZM16.7335 16.3333C15.5445 16.3333 14.5806 17.2972 14.5806 18.4862V21.2619C14.5806 21.5805 14.8389 21.8387 15.1575 21.8387C15.4761 21.8387 15.7343 21.5805 15.7343 21.2619V20.4128C15.7343 20.1225 15.9697 19.8871 16.26 19.8871C16.4547 19.8871 16.6334 19.9947 16.7246 20.1667L17.4527 21.5416C17.5495 21.7244 17.7394 21.8387 17.9462 21.8387C18.3694 21.8387 18.6388 21.3865 18.4374 21.0144L17.7517 19.7476C17.7378 19.7219 17.7489 19.6899 17.7752 19.6774C18.0719 19.5376 18.2984 19.3369 18.4547 19.0753C18.611 18.8118 18.6891 18.4973 18.6891 18.1317C18.6891 17.7679 18.6119 17.4516 18.4573 17.1828C18.3046 16.9122 18.0816 16.7034 17.7886 16.5565C17.4973 16.4077 17.1456 16.3333 16.7335 16.3333ZM21.1426 16.8636C21.0124 16.543 20.7009 16.3333 20.3548 16.3333C19.8852 16.3333 19.5044 16.7141 19.5044 17.1837V21.2792C19.5044 21.5882 19.7549 21.8387 20.0639 21.8387C20.373 21.8387 20.6235 21.5882 20.6235 21.2792V18.2689C20.6235 18.254 20.6355 18.2419 20.6504 18.2419C20.6615 18.2419 20.6714 18.2487 20.6755 18.259L21.9406 21.4573C22.0253 21.6713 22.232 21.8118 22.4622 21.8118C22.692 21.8118 22.8986 21.6716 22.9834 21.458L24.2483 18.2724C24.2523 18.2621 24.2623 18.2554 24.2733 18.2554C24.2882 18.2554 24.3003 18.2675 24.3003 18.2824V21.2792C24.3003 21.5882 24.5508 21.8387 24.8598 21.8387C25.1688 21.8387 25.4194 21.5882 25.4194 21.2792V17.1837C25.4194 16.7141 25.0386 16.3333 24.569 16.3333C24.2229 16.3333 23.9114 16.543 23.7811 16.8636L22.5059 20.0026C22.4986 20.0205 22.4812 20.0323 22.4619 20.0323C22.4426 20.0323 22.4252 20.0205 22.4179 20.0026L21.1426 16.8636Z" fill="black"/>
</svg>
