<svg width="28" height="28" viewBox="0 0 28 28" fill="none" xmlns="http://www.w3.org/2000/svg">
<path d="M15.7343 19.1683C15.7343 19.6009 16.085 19.9516 16.5177 19.9516C16.7379 19.9516 16.9209 19.9211 17.0665 19.8602C17.2122 19.7993 17.3205 19.7079 17.3916 19.586C17.4644 19.4642 17.5008 19.3127 17.5008 19.1317C17.5008 18.9489 17.4644 18.7948 17.3916 18.6694C17.3205 18.5439 17.2113 18.4489 17.0638 18.3844C16.9182 18.3181 16.7344 18.2849 16.5123 18.2849C16.0826 18.2849 15.7343 18.6333 15.7343 19.0629V19.1683Z" fill="black"/>
<path fill-rule="evenodd" clip-rule="evenodd" d="M20 28C24.4183 28 28 24.4183 28 20C28 15.5817 24.4183 12 20 12C15.5817 12 12 15.5817 12 20C12 24.4183 15.5817 28 20 28ZM16.7335 17.3333C15.5445 17.3333 14.5806 18.2972 14.5806 19.4862V22.2619C14.5806 22.5805 14.8389 22.8387 15.1575 22.8387C15.4761 22.8387 15.7343 22.5805 15.7343 22.2619V21.4128C15.7343 21.1225 15.9697 20.8871 16.26 20.8871C16.4547 20.8871 16.6334 20.9947 16.7246 21.1667L17.4527 22.5416C17.5495 22.7244 17.7394 22.8387 17.9462 22.8387C18.3694 22.8387 18.6388 22.3865 18.4374 22.0144L17.7517 20.7476C17.7378 20.7219 17.7489 20.6899 17.7752 20.6774C18.0719 20.5376 18.2984 20.3369 18.4547 20.0753C18.611 19.8118 18.6891 19.4973 18.6891 19.1317C18.6891 18.7679 18.6119 18.4516 18.4573 18.1828C18.3046 17.9122 18.0816 17.7034 17.7886 17.5565C17.4973 17.4077 17.1456 17.3333 16.7335 17.3333ZM21.1426 17.8636C21.0124 17.543 20.7009 17.3333 20.3548 17.3333C19.8852 17.3333 19.5044 17.7141 19.5044 18.1837V22.2792C19.5044 22.5882 19.7549 22.8387 20.0639 22.8387C20.373 22.8387 20.6235 22.5882 20.6235 22.2792V19.2689C20.6235 19.254 20.6355 19.2419 20.6504 19.2419C20.6615 19.2419 20.6714 19.2487 20.6755 19.259L21.9406 22.4573C22.0253 22.6713 22.232 22.8118 22.4622 22.8118C22.692 22.8118 22.8986 22.6716 22.9834 22.458L24.2483 19.2724C24.2523 19.2621 24.2623 19.2554 24.2733 19.2554C24.2882 19.2554 24.3003 19.2675 24.3003 19.2824V22.2792C24.3003 22.5882 24.5508 22.8387 24.8598 22.8387C25.1688 22.8387 25.4194 22.5882 25.4194 22.2792V18.1837C25.4194 17.7141 25.0386 17.3333 24.569 17.3333C24.2229 17.3333 23.9114 17.543 23.7811 17.8636L22.5059 21.0026C22.4986 21.0205 22.4812 21.0323 22.4619 21.0323C22.4426 21.0323 22.4252 21.0205 22.4179 21.0026L21.1426 17.8636Z" fill="black"/>
<path fill-rule="evenodd" clip-rule="evenodd" d="M7 0C3.13403 0 0 3.13401 0 7V17C0 20.866 3.13403 24 7 24H11.9355C11.3821 22.8862 11.0524 21.6414 11.0057 20.3246C10.723 20.7675 10.2273 21.0612 9.66296 21.0612H9.5791C8.69995 21.0612 7.9873 20.3485 7.9873 19.4694C7.9873 18.5902 8.69995 17.8776 9.5791 17.8776H9.66296C10.2849 17.8776 10.8236 18.2343 11.0854 18.7543C11.3264 17.0139 12.0652 15.4325 13.1532 14.1585C13.2765 13.9396 13.4501 13.7528 13.6583 13.6138C15.063 12.2189 16.9252 11.2843 19 11.0549V7C19 3.13401 15.866 0 12 0H7ZM5.10706 2.32653C3.95752 2.32653 3.02551 3.25851 3.02551 4.40816C3.02551 5.55782 3.9574 6.4898 5.10706 6.4898H14.1349C15.2845 6.4898 16.2166 5.55782 16.2166 4.40816C16.2166 3.25851 15.2845 2.32653 14.1349 2.32653H5.10706ZM4.70117 8.81633C5.58032 8.81633 6.29297 9.52901 6.29297 10.4082C6.29297 11.2873 5.58032 12 4.70117 12H4.61731C3.73816 12 3.02551 11.2873 3.02551 10.4082C3.02551 9.52901 3.73816 8.81633 4.61731 8.81633H4.70117ZM14.5409 8.81633C13.6617 8.81633 12.9491 9.52901 12.9491 10.4082C12.9491 11.2873 13.6617 12 14.5409 12H14.6248C15.5039 12 16.2166 11.2873 16.2166 10.4082C16.2166 9.52901 15.5039 8.81633 14.6248 8.81633H14.5409ZM9.66296 8.81633C10.5421 8.81633 11.2548 9.52901 11.2548 10.4082C11.2548 11.2873 10.5421 12 9.66296 12H9.5791C8.69995 12 7.9873 11.2873 7.9873 10.4082C7.9873 9.52901 8.69995 8.81633 9.5791 8.81633H9.66296ZM4.61731 17.8776C3.73816 17.8776 3.02551 18.5902 3.02551 19.4694C3.02551 20.3485 3.73816 21.0612 4.61731 21.0612H4.70117C5.58032 21.0612 6.29297 20.3485 6.29297 19.4694C6.29297 18.5902 5.58032 17.8776 4.70117 17.8776H4.61731ZM4.70117 13.3469C5.58032 13.3469 6.29297 14.0596 6.29297 14.9388C6.29297 15.8179 5.58032 16.5306 4.70117 16.5306H4.61731C3.73816 16.5306 3.02551 15.8179 3.02551 14.9388C3.02551 14.0596 3.73816 13.3469 4.61731 13.3469H4.70117ZM9.66296 13.3469C10.5421 13.3469 11.2548 14.0596 11.2548 14.9388C11.2548 15.8179 10.5421 16.5306 9.66296 16.5306H9.5791C8.69995 16.5306 7.9873 15.8179 7.9873 14.9388C7.9873 14.0596 8.69995 13.3469 9.5791 13.3469H9.66296Z" fill="black"/>
</svg>
