<svg width="26" height="28" viewBox="0 0 26 28" fill="none" xmlns="http://www.w3.org/2000/svg">
<path d="M5.37931 1.38614C5.37931 0.620581 6.04829 0 6.87356 0H7.47126C8.29653 0 8.96552 0.620581 8.96552 1.38614V3.88119H16.7356V1.38614C16.7356 0.620581 17.4046 0 18.2299 0H18.8276C19.6529 0 20.3218 0.620581 20.3218 1.38614V3.88119H22.7126C24.5282 3.88119 26 5.24651 26 6.93069V8.31683H0V6.93069C0 5.24651 1.47182 3.88119 3.28736 3.88119H5.37931V1.38614Z" fill="black"/>
<path d="M26 10.5347H0V24.9505C0 26.6347 1.47182 28 3.28736 28H22.7126C24.5282 28 26 26.6347 26 24.9505V10.5347Z" fill="black"/>
</svg>
