<svg width="28" height="28" viewBox="0 0 28 28" fill="none" xmlns="http://www.w3.org/2000/svg">
<path d="M11.1283 9.07407C13.6072 9.07407 15.6168 7.04277 15.6168 4.53704C15.6168 2.0313 13.6072 0 11.1283 0C8.64929 0 6.63965 2.0313 6.63965 4.53704C6.63965 7.04277 8.64929 9.07407 11.1283 9.07407Z" fill="black"/>
<path d="M13.4869 21L19.1218 13.9796C17.0693 12.0741 14.1892 10.8889 11 10.8889C5.75342 10.8889 1.34302 14.0965 0.0786132 18.4422C-0.321045 19.8159 0.862793 21 2.2793 21H13.4869Z" fill="black"/>
<path d="M21.7321 12.3182L25.4089 15.2883L16.2455 26.7058L12.5688 23.7357L21.7321 12.3182Z" fill="black"/>
<path d="M13.254 27.9308C12.5919 28.2019 11.8914 27.636 12.0141 26.9293L12.5688 23.7357L16.2455 26.7058L13.254 27.9308Z" fill="black"/>
<path d="M24.1221 9.34028C24.4372 8.94772 25.0098 8.88572 25.4011 9.20181L27.6608 11.0273C28.0521 11.3434 28.1139 11.9178 27.7988 12.3104L26.2547 14.2344L22.578 11.2643L24.1221 9.34028Z" fill="black"/>
</svg>
