<svg width="28" height="25" viewBox="0 0 28 25" fill="none" xmlns="http://www.w3.org/2000/svg">
<path d="M1.92381 8.16086C1.10898 7.37977 0 8.19316 0 9.57189V23.2877C0 24.2334 0.549826 25 1.22807 25H26.7719C27.4502 25 28 24.2334 28 23.2877V9.51644C28 8.13771 26.891 7.32432 26.0762 8.10541L14.6668 19.0424C14.2477 19.4441 13.6944 19.4441 13.2753 19.0424L1.92381 8.16086Z" fill="black"/>
<path d="M27.9855 0.0201678C27.9909 0.0276065 28 0.0223353 28 0.0118128C28 0.00528875 27.9962 0 27.9915 0C27.984 0 27.9802 0.0127271 27.9855 0.0201678Z" fill="black"/>
<path d="M14.9423 16.5102C14.447 16.9842 13.795 16.9917 13.2943 16.529L1.98377 6.07902C1.37515 5.5167 1.66067 4.19518 2.39078 4.19518L25.4341 4.19518C26.1579 4.19518 26.4479 5.49843 25.8511 6.06963L14.9423 16.5102Z" fill="black"/>
</svg>
