<svg width="28" height="28" viewBox="0 0 28 28" fill="none" xmlns="http://www.w3.org/2000/svg">
<path fill-rule="evenodd" clip-rule="evenodd" d="M9.95715 2.44898C9.95715 1.09644 8.86987 0 7.52856 0H2.42859C1.08728 0 0 1.09644 0 2.44898V21.551C0 22.9036 1.08728 24 2.42859 24H4V25.8047C4 26.3142 4.41306 26.7273 4.92259 26.7273C5.43212 26.7273 5.84517 26.3142 5.84517 25.8047V24H7.36328V25.8047C7.36328 26.3142 7.77634 26.7273 8.28587 26.7273C8.7954 26.7273 9.20845 26.3142 9.20845 25.8047V24H11V25.551C11 26.9036 12.0873 28 13.4286 28H25.5714C26.9127 28 28 26.9035 28 25.551V13.7959C28 12.4434 26.9127 11.3469 25.5714 11.3469H23.3857C22.0444 11.3469 20.9572 10.2505 20.9572 8.89796V6.44898C20.9572 5.09644 19.8699 4 18.5286 4H13.5049L10.9409 1.22449L10.9056 3.66314C10.8976 4.2227 11.0621 4.74594 11.3508 5.18032C11.1282 5.55033 11 5.98456 11 6.44898V6.90941C10.3696 6.46702 9.95715 5.73107 9.95715 4.89796V2.44898ZM9.20845 24V21.2763C9.20845 21.2531 9.22723 21.2344 9.25038 21.2344C9.26415 21.2344 9.27705 21.2411 9.28488 21.2525L12.7575 26.2763C12.9527 26.5587 13.2742 26.7273 13.6175 26.7273C14.1949 26.7273 14.663 26.2592 14.663 25.6818V18.9183C14.663 18.4111 14.2519 18 13.7447 18C13.2375 18 12.8264 18.4111 12.8264 18.9183V23.4384C12.8264 23.4661 12.8039 23.4886 12.7761 23.4886C12.7595 23.4886 12.744 23.4805 12.7347 23.4668L9.29866 18.4605C9.10083 18.1723 8.77367 18 8.42406 18C7.83821 18 7.36328 18.4749 7.36328 19.0608V24H9.20845ZM5.84517 24V18.9226C5.84517 18.4131 5.43212 18 4.92259 18C4.41306 18 4 18.4131 4 18.9226V24H5.84517ZM21.9056 7.66314C21.8851 9.08778 22.9836 10.277 24.4003 10.3636L26.8252 10.5117L21.9409 5.22449L21.9056 7.66314ZM17.062 18C17.4802 18 17.8503 18.2707 17.9771 18.6692L19.8613 24.5921C19.8686 24.6151 19.89 24.6307 19.9141 24.6307C19.9382 24.6307 19.9595 24.6151 19.9668 24.5921L21.8554 18.6676C21.9821 18.27 22.3515 18 22.7689 18C23.4275 18 23.89 18.6487 23.6754 19.2713L21.4927 25.603C21.2608 26.2758 20.6275 26.7273 19.9159 26.7273C19.2046 26.7273 18.5715 26.2761 18.3394 25.6037L16.1542 19.2737C15.9389 18.65 16.4022 18 17.062 18ZM24.3065 26.5398C24.5082 26.7386 24.7496 26.8381 25.0309 26.8381C25.2156 26.8381 25.3846 26.7926 25.538 26.7017C25.6914 26.608 25.815 26.4844 25.9087 26.331C26.0053 26.1747 26.0536 26.0028 26.0536 25.8153C26.0536 25.5369 25.9513 25.2983 25.7468 25.0994C25.5423 24.9006 25.3036 24.8011 25.0309 24.8011C24.7496 24.8011 24.5082 24.9006 24.3065 25.0994C24.1076 25.2983 24.0082 25.5369 24.0082 25.8153C24.0082 26.0966 24.1076 26.3381 24.3065 26.5398Z" fill="black"/>
</svg>
