<svg width="28" height="28" viewBox="0 0 28 28" fill="none" xmlns="http://www.w3.org/2000/svg">
<path fill-rule="evenodd" clip-rule="evenodd" d="M0 7C0 3.13401 3.13401 0 7 0H21C24.866 0 28 3.13401 28 7V21C28 24.866 24.866 28 21 28H7C3.13401 28 0 24.866 0 21V7ZM2.83146 5.10588C2.83146 3.74141 3.93758 2.63529 5.30205 2.63529H7.59683C8.9613 2.63529 10.0674 3.74141 10.0674 5.10588V5.10588C10.0674 6.47035 8.9613 7.57647 7.59683 7.57647H5.30205C3.93758 7.57647 2.83146 6.47035 2.83146 5.10588V5.10588ZM10.0674 13.8297C10.0674 11.8316 8.44759 10.2118 6.44944 10.2118V10.2118C4.45128 10.2118 2.83146 11.8316 2.83146 13.8297V21.4173C2.83146 23.4155 4.45128 25.0353 6.44944 25.0353V25.0353C8.44759 25.0353 10.0674 23.4155 10.0674 21.4173V13.8297ZM12.2697 16.9758C12.2697 13.2401 15.298 10.2118 19.0337 10.2118V10.2118C22.7694 10.2118 25.7978 13.2401 25.7978 16.9758V18.2713C25.7978 22.0069 22.7694 25.0353 19.0337 25.0353V25.0353C15.298 25.0353 12.2697 22.0069 12.2697 18.2712V16.9758ZM25.7978 5.10588C25.7978 3.74141 24.6916 2.63529 23.3272 2.63529H14.7403C13.3758 2.63529 12.2697 3.74141 12.2697 5.10588V5.10588C12.2697 6.47035 13.3758 7.57647 14.7403 7.57647H23.3272C24.6916 7.57647 25.7978 6.47035 25.7978 5.10588V5.10588Z" fill="black"/>
</svg>
