<svg width="28" height="29" viewBox="0 0 28 29" fill="none" xmlns="http://www.w3.org/2000/svg">
<path fill-rule="evenodd" clip-rule="evenodd" d="M13.2877 0C14.6596 0 15.7717 1.14213 15.7717 2.55102V5.10204C15.7717 6.51093 16.8839 7.65306 18.2558 7.65306H20.4914C21.8633 7.65306 22.9755 8.79519 22.9755 10.2041V22.449C22.9755 23.8579 21.8633 25 20.4914 25H8.07116C6.69927 25 5.58711 23.8579 5.58711 22.449V17.1453L7.59696 12.3732L10.231 19.6698L10.5483 20.5486L11.1035 19.7971L17.0348 11.768L17.5241 15.0243C17.5651 15.2974 17.8198 15.4855 18.0928 15.4445C18.3659 15.4035 18.554 15.1488 18.513 14.8757L17.8443 10.4257C17.8032 10.1526 17.5486 9.96452 17.2755 10.0056L12.8255 10.6743C12.5524 10.7153 12.3643 10.9699 12.4053 11.243C12.4464 11.5161 12.701 11.7042 12.9741 11.6632L16.2304 11.1738L10.8544 18.4514L8.10309 10.8302L7.66863 9.62675L7.172 10.8059L5.58711 14.569V2.55102C5.58711 1.14213 6.69927 0 8.07116 0H13.2877ZM5.58711 14.569L0.012085 27.8059L0.933681 28.1941L5.58711 17.1453V14.569ZM19.2935 6.62871C17.8445 6.53854 16.7209 5.29976 16.7419 3.81577L16.778 1.27551L21.7738 6.78307L19.2935 6.62871ZM21.0736 22H26.5711C26.5863 22.1647 26.594 22.3315 26.594 22.5C26.594 25.5376 24.0753 28 20.9684 28C17.8614 28 15.3427 25.5376 15.3427 22.5C15.3427 19.4624 17.8614 17 20.9684 17C22.0307 17 23.0242 17.2879 23.8718 17.7882L21.0736 22ZM28.0001 21.2119C27.8353 19.4234 26.7947 17.8817 25.3008 17L22.5026 21.2119H28.0001Z" fill="black"/>
</svg>
