<svg width="28" height="28" viewBox="0 0 28 28" fill="none" xmlns="http://www.w3.org/2000/svg">
<path fill-rule="evenodd" clip-rule="evenodd" d="M2.4231 0C1.08484 0 0 1.12263 0 2.50746V21.4925C0 22.8774 1.08484 24 2.4231 24H12V22.3881H2.94226C2.17761 22.3881 1.55774 21.7466 1.55774 20.9552V19.5224C1.55774 18.7311 2.17761 18.0896 2.94226 18.0896H12V13C12 10.2386 14.2385 8 17 8H18V2.50746C18 1.12263 16.9152 0 15.5769 0H2.4231ZM14.0786 3.22388C14.5238 3.22388 14.8846 3.58472 14.8846 4.02985C14.8846 4.47498 14.5238 4.83582 14.0786 4.83582H5.30603C4.86084 4.83582 4.5 4.47498 4.5 4.02985C4.5 3.58472 4.86084 3.22388 5.30603 3.22388H14.0786Z" fill="black"/>
<path fill-rule="evenodd" clip-rule="evenodd" d="M13 14C13 11.2386 15.2386 9 18 9H23C25.7614 9 28 11.2386 28 14V23C28 25.7614 25.7614 28 23 28H18C15.2386 28 13 25.7614 13 23V14ZM15.3885 12.4898C15.3885 11.5797 16.1264 10.8418 17.0365 10.8418H24.1546C25.0647 10.8418 25.8025 11.5797 25.8025 12.4898C25.8025 13.3999 25.0647 14.1378 24.1546 14.1378H17.0365C16.1264 14.1378 15.3885 13.3999 15.3885 12.4898ZM17.9682 17.2398C17.9682 16.5438 17.4039 15.9796 16.7079 15.9796H16.6487C15.9527 15.9796 15.3885 16.5438 15.3885 17.2398C15.3885 17.9358 15.9527 18.5 16.6487 18.5H16.7079C17.4039 18.5 17.9682 17.9358 17.9682 17.2398ZM23.2229 17.2398C23.2229 16.5438 23.7871 15.9796 24.4831 15.9796H24.5423C25.2383 15.9796 25.8025 16.5438 25.8025 17.2398C25.8025 17.9358 25.2383 18.5 24.5423 18.5H24.4831C23.7871 18.5 23.2229 17.9358 23.2229 17.2398ZM21.8853 17.2398C21.8853 16.5438 21.3211 15.9796 20.6251 15.9796H20.5659C19.8699 15.9796 19.3057 16.5438 19.3057 17.2398C19.3057 17.9358 19.8699 18.5 20.5659 18.5H20.6251C21.3211 18.5 21.8853 17.9358 21.8853 17.2398ZM15.3885 24.4133C15.3885 23.7173 15.9527 23.1531 16.6487 23.1531H16.7079C17.4039 23.1531 17.9682 23.7173 17.9682 24.4133C17.9682 25.1093 17.4039 25.6735 16.7079 25.6735H16.6487C15.9527 25.6735 15.3885 25.1093 15.3885 24.4133ZM25.8025 24.4133C25.8025 23.7173 25.2383 23.1531 24.5423 23.1531H24.4831C23.7871 23.1531 23.2229 23.7173 23.2229 24.4133C23.2229 25.1093 23.7871 25.6735 24.4831 25.6735H24.5423C25.2383 25.6735 25.8025 25.1093 25.8025 24.4133ZM19.3057 24.4133C19.3057 23.7173 19.8699 23.1531 20.5659 23.1531H20.6251C21.3211 23.1531 21.8853 23.7173 21.8853 24.4133C21.8853 25.1093 21.3211 25.6735 20.6251 25.6735H20.5659C19.8699 25.6735 19.3057 25.1093 19.3057 24.4133ZM17.9682 20.8265C17.9682 20.1305 17.4039 19.5663 16.7079 19.5663H16.6487C15.9527 19.5663 15.3885 20.1305 15.3885 20.8265C15.3885 21.5225 15.9527 22.0867 16.6487 22.0867H16.7079C17.4039 22.0867 17.9682 21.5225 17.9682 20.8265ZM23.2229 20.8265C23.2229 20.1305 23.7871 19.5663 24.4831 19.5663H24.5423C25.2383 19.5663 25.8025 20.1305 25.8025 20.8265C25.8025 21.5225 25.2383 22.0867 24.5423 22.0867H24.4831C23.7871 22.0867 23.2229 21.5225 23.2229 20.8265ZM21.8853 20.8265C21.8853 20.1305 21.3211 19.5663 20.6251 19.5663H20.5659C19.8699 19.5663 19.3057 20.1305 19.3057 20.8265C19.3057 21.5225 19.8699 22.0867 20.5659 22.0867H20.6251C21.3211 22.0867 21.8853 21.5225 21.8853 20.8265Z" fill="black"/>
</svg>
