<svg width="26" height="28" viewBox="0 0 26 28" fill="none" xmlns="http://www.w3.org/2000/svg">
<path fill-rule="evenodd" clip-rule="evenodd" d="M3.09242 8.13201C3.08347 7.99762 3.07894 7.86232 3.07894 7.7262C3.07894 3.45914 7.52078 0 13 0C18.4793 0 22.9211 3.45914 22.9211 7.7262C22.9211 7.93106 22.9108 8.13408 22.8907 8.33493V9.85185H23.7079C24.9738 9.85185 26 10.6876 26 11.7185V23.3333C26 25.9107 23.4345 28 20.2697 28H5.73026C2.56551 28 0 25.9107 0 23.3333V11.7185C0 10.6876 1.02621 9.85185 2.29211 9.85185H3.07894V8.13201H3.09242ZM19.8889 9.85185H6.08076V7.87219C6.07913 7.82367 6.07833 7.77502 6.07833 7.7262C6.07833 4.70569 9.17728 2.25708 13 2.25708C16.8228 2.25708 19.9217 4.70569 19.9217 7.7262C19.9217 7.8627 19.9153 7.99803 19.9029 8.13201H19.8889V9.85185ZM16.4268 21.1556C16.4268 22.702 14.8874 23.9556 12.9886 23.9556C11.0897 23.9556 9.55044 22.702 9.55044 21.1556C9.55044 19.9364 10.5072 18.8993 11.8425 18.5149V15.1461C11.8425 14.5131 12.3557 14 12.9886 14V14C13.6215 14 14.1347 14.5131 14.1347 15.1461V18.5149C15.47 18.8993 16.4268 19.9364 16.4268 21.1556Z" fill="black"/>
</svg>
