<svg width="28" height="28" viewBox="0 0 28 28" fill="none" xmlns="http://www.w3.org/2000/svg">
<path d="M15.2609 1.8116C15.2609 0.811081 14.4173 0 13.3768 0H12.6232C11.5827 0 10.7391 0.811081 10.7391 1.8116V2.87813C10.7391 4.49208 8.70975 5.30035 7.52286 4.15912L6.73851 3.40497C6.00276 2.69749 4.80984 2.69749 4.07405 3.40497L3.54117 3.91737C2.80538 4.62483 2.80538 5.77188 3.54117 6.47934L4.32548 7.23351C5.5124 8.37474 4.67178 10.3261 2.99327 10.3261H1.88405C0.84354 10.3261 0 11.1372 0 12.1377V12.8623C0 13.8628 0.84354 14.6739 1.88405 14.6739H2.99327C4.67178 14.6739 5.5124 16.6252 4.32548 17.7665L3.54117 18.5207C2.80538 19.2281 2.80538 20.3752 3.54117 21.0826L4.07405 21.595C4.80981 22.3025 6.00272 22.3025 6.73848 21.595L7.52286 20.8409C8.70975 19.6996 10.7391 20.5079 10.7391 22.1219V23.1884C10.7391 24.1889 11.5827 25 12.6232 25H13.2884C12.4475 23.7371 11.96 22.2358 11.96 20.625C11.96 19.1878 12.3481 17.8378 13.0289 16.6666C13.0193 16.6666 13.0096 16.6667 13 16.6667C10.6068 16.6667 8.66668 14.8012 8.66668 12.5C8.66668 10.1988 10.6068 8.33333 13 8.33333C15.3932 8.33333 17.3333 10.1988 17.3333 12.5C17.3333 12.6936 17.3196 12.8841 17.293 13.0706C18.2575 12.7024 19.3092 12.5 20.41 12.5C22.309 12.5 24.0618 13.1024 25.4728 14.1192C25.7993 13.7934 26 13.3504 26 12.8623V12.1377C26 11.1372 25.1565 10.3261 24.116 10.3261H23.0067C21.3282 10.3261 20.4876 8.37474 21.6745 7.23351L22.4588 6.47934C23.1946 5.77188 23.1946 4.62483 22.4588 3.91737L21.9259 3.40497C21.1902 2.69749 19.9972 2.69749 19.2615 3.40497L18.4771 4.15912C17.2903 5.30035 15.2609 4.49208 15.2609 2.87813V1.8116Z" fill="black"/>
<path d="M16.5009 20.2285C16.5009 20.6312 16.8326 20.9577 17.2353 20.9577C17.4418 20.9577 17.6133 20.931 17.7499 20.8777C17.8864 20.8244 17.988 20.7444 18.0546 20.6378C18.1229 20.5311 18.157 20.3986 18.157 20.2403C18.157 20.0803 18.1229 19.9455 18.0546 19.8357C17.988 19.7259 17.8856 19.6428 17.7474 19.5864C17.6108 19.5283 17.4385 19.4993 17.2303 19.4993C16.8276 19.4993 16.5009 19.8258 16.5009 20.2285Z" fill="black"/>
<path fill-rule="evenodd" clip-rule="evenodd" d="M20.5 28C24.6421 28 28 24.866 28 21C28 17.134 24.6421 14 20.5 14C16.3579 14 13 17.134 13 21C13 24.866 16.3579 28 20.5 28ZM17.4376 18.6667C16.323 18.6667 15.4194 19.5703 15.4194 20.6849V22.9431C15.4194 23.2418 15.6615 23.4839 15.9601 23.4839C16.2588 23.4839 16.5009 23.2418 16.5009 22.9431V22.2752C16.5009 21.9996 16.7243 21.7762 16.9999 21.7762C17.1795 21.7762 17.3452 21.8727 17.4338 22.0289L18.1114 23.223C18.2029 23.3842 18.374 23.4839 18.5593 23.4839C18.9562 23.4839 19.204 23.0538 19.0048 22.7105L18.3932 21.6559C18.3799 21.6329 18.39 21.6035 18.4143 21.5927C18.6924 21.4704 18.9047 21.2948 19.0512 21.0659C19.1978 20.8353 19.2711 20.5601 19.2711 20.2403C19.2711 19.9219 19.1986 19.6452 19.0537 19.4099C18.9105 19.1732 18.7015 18.9905 18.4268 18.8619C18.1537 18.7317 17.824 18.6667 17.4376 18.6667ZM21.58 19.1509C21.452 18.8568 21.1619 18.6667 20.8412 18.6667C20.3962 18.6667 20.0354 19.0274 20.0354 19.4725V22.9593C20.0354 23.249 20.2702 23.4839 20.5599 23.4839C20.8497 23.4839 21.0845 23.249 21.0845 22.9593V20.3622C21.0845 20.3481 21.0959 20.3367 21.11 20.3367C21.1203 20.3367 21.1296 20.3428 21.1336 20.3523L22.3113 23.1312C22.3959 23.3307 22.5916 23.4604 22.8083 23.4604C23.0247 23.4604 23.2202 23.3311 23.3049 23.1319L24.4825 20.364C24.4865 20.3546 24.4957 20.3485 24.506 20.3485C24.5201 20.3485 24.5315 20.3599 24.5315 20.374V22.9593C24.5315 23.249 24.7664 23.4839 25.0561 23.4839C25.3458 23.4839 25.5806 23.249 25.5806 22.9593V19.4725C25.5806 19.0274 25.2199 18.6667 24.7749 18.6667C24.4542 18.6667 24.164 18.8568 24.036 19.1509L22.85 21.8757C22.8427 21.8924 22.8262 21.9032 22.808 21.9032C22.7898 21.9032 22.7733 21.8924 22.7661 21.8757L21.58 19.1509Z" fill="black"/>
</svg>
