<svg width="26" height="28" viewBox="0 0 26 28" fill="none" xmlns="http://www.w3.org/2000/svg">
<path d="M19.5868 13.9689L23.3486 16.6264L13.9732 26.842L10.2114 24.1845L19.5868 13.9689Z" fill="black"/>
<path d="M10.9124 27.9381C10.235 28.1807 9.51823 27.6743 9.64383 27.042L10.2114 24.1845L13.9732 26.842L10.9124 27.9381Z" fill="black"/>
<path d="M22.0321 11.3045C22.3545 10.9532 22.9403 10.8977 23.3407 11.1806L25.6527 12.8139C26.0531 13.0967 26.1163 13.6107 25.794 13.9619L24.2141 15.6834L20.4522 13.0259L22.0321 11.3045Z" fill="black"/>
<path fill-rule="evenodd" clip-rule="evenodd" d="M7.01107 0C8.26014 0 9.27271 0.938854 9.27271 2.09698V4.19397C9.27271 5.3521 10.2853 6.29096 11.5343 6.29096H13.5698C14.8189 6.29096 15.8315 7.22981 15.8315 8.38794V15.2167L11.21 20.5505H2.26164C1.01257 20.5505 0 19.6116 0 18.4535V2.09698C0 0.938854 1.01257 0 2.26164 0H7.01107ZM12.4792 5.44892C11.1599 5.3748 10.1369 4.3565 10.156 3.13663L10.1889 1.04849L14.7374 5.57581L12.4792 5.44892ZM4.41754 10.3253C3.2561 11.1768 2.08481 12.4903 1.36187 13.447L0.564058 12.8441C1.31747 11.8471 2.5561 10.45 3.82629 9.51883C4.4575 9.05608 5.13869 8.67664 5.8012 8.54759C6.49354 8.41274 7.18815 8.55244 7.71968 9.15029C8.06477 9.53844 8.20327 10.0344 8.22148 10.544C8.23961 11.0517 8.1405 11.6077 7.97398 12.1696C7.77392 12.8447 7.46629 13.5618 7.10341 14.266C7.20331 14.2311 7.30084 14.2001 7.39545 14.1734C7.71447 14.0834 8.05018 14.0277 8.3476 14.0721C8.6724 14.1205 9.00979 14.3063 9.12876 14.7152C9.23239 15.0714 9.10447 15.4448 8.97144 15.7306C8.82639 16.0422 8.60643 16.3887 8.35741 16.748C8.12583 17.0822 7.85561 17.4463 7.5752 17.8242C7.55174 17.8558 7.52821 17.8876 7.50462 17.9194C7.19694 18.3342 6.8769 18.7678 6.5688 19.2141C5.94857 20.1125 5.39972 21.0305 5.11134 21.898C4.82416 22.7618 4.8165 23.507 5.17424 24.1297C6.55174 26.5275 8.09384 26.5844 8.50812 26.463L8.78922 27.4227C7.81399 27.7083 5.84759 27.3093 4.30713 24.6278C3.753 23.6632 3.82676 22.5921 4.16241 21.5825C4.49687 20.5764 5.11228 19.5637 5.74585 18.646C6.06467 18.1841 6.39392 17.7382 6.70144 17.3236C6.72432 17.2928 6.74706 17.2621 6.76966 17.2317C7.05297 16.8498 7.31362 16.4986 7.5355 16.1784C7.77701 15.8299 7.95701 15.5402 8.06486 15.3085C8.12098 15.188 8.14599 15.107 8.15732 15.0571C8.05957 15.0524 7.8984 15.0705 7.66701 15.1358C7.26869 15.2482 6.76986 15.4688 6.2449 15.7596C5.57612 16.816 4.84287 17.7667 4.24154 18.3826C3.94004 18.6915 3.62979 18.9604 3.35179 19.0923C3.22363 19.1531 2.99563 19.2371 2.7495 19.1581C2.44676 19.061 2.32869 18.7982 2.29441 18.6055C2.23205 18.2548 2.35653 17.9145 2.5125 17.6387C2.67433 17.3525 2.91046 17.0642 3.1807 16.7886C3.7229 16.2354 4.46138 15.6735 5.20954 15.2086C5.31588 15.1425 5.42313 15.078 5.53077 15.0153C6.16974 13.9779 6.72616 12.8608 7.0152 11.8855C7.16418 11.3828 7.23502 10.941 7.22211 10.5797C7.20928 10.2203 7.11574 9.97603 6.97234 9.81473C6.72227 9.53346 6.41274 9.44727 5.99239 9.52915C5.54221 9.61683 5.00215 9.89673 4.41754 10.3253ZM2.89905 18.1985C2.89915 18.1982 2.90217 18.197 2.9078 18.1956C2.90176 18.198 2.89894 18.1987 2.89905 18.1985Z" fill="black"/>
</svg>
