<svg width="28" height="28" viewBox="0 0 28 28" fill="none" xmlns="http://www.w3.org/2000/svg">
<path fill-rule="evenodd" clip-rule="evenodd" d="M14 28C21.732 28 28 21.732 28 14C28 6.26801 21.732 0 14 0C6.26801 0 0 6.26801 0 14C0 21.732 6.26801 28 14 28ZM11.884 9.63353C13.7106 9.63353 15.1913 8.13678 15.1913 6.29045C15.1913 4.44412 13.7106 2.94737 11.884 2.94737C10.0574 2.94737 8.57658 4.44412 8.57658 6.29045C8.57658 8.13678 10.0574 9.63353 11.884 9.63353ZM18.5919 11.7895C19.0637 11.7895 19.4462 12.172 19.4462 12.6438V13.1467C19.4462 13.9078 20.3664 14.289 20.9046 13.7508L21.2603 13.3952C21.5939 13.0616 22.1348 13.0616 22.4684 13.3952L22.7101 13.6368C23.0437 13.9705 23.0437 14.5114 22.7101 14.845L22.3544 15.2006C21.8162 15.7388 22.1974 16.659 22.9585 16.659H23.4615C23.9333 16.659 24.3158 17.0415 24.3158 17.5133V17.8551C24.3158 18.3269 23.9333 18.7094 23.4615 18.7094H22.9585C22.1974 18.7094 21.8162 19.6296 22.3544 20.1678L22.7101 20.5234C23.0437 20.8571 23.0437 21.398 22.7101 21.7316L22.4684 21.9732C22.1348 22.3069 21.5939 22.3069 21.2603 21.9732L20.9046 21.6176C20.3664 21.0794 19.4462 21.4606 19.4462 22.2217V22.7246C19.4462 23.1965 19.0637 23.5789 18.5919 23.5789H18.2502C17.7784 23.5789 17.3959 23.1965 17.3959 22.7246V22.2217C17.3959 21.4606 16.4757 21.0794 15.9375 21.6176L15.5818 21.9732C15.2482 22.3069 14.7073 22.3069 14.3737 21.9732L14.132 21.7316C13.7984 21.398 13.7984 20.8571 14.132 20.5234L14.4877 20.1678C15.0259 19.6296 14.6447 18.7094 13.8836 18.7094H13.3806C12.9088 18.7094 12.5263 18.3269 12.5263 17.8551V17.5133C12.5263 17.0415 12.9088 16.659 13.3806 16.659H13.8836C14.6447 16.659 15.0259 15.7388 14.4877 15.2006L14.132 14.845C13.7984 14.5114 13.7984 13.9705 14.132 13.6368L14.3737 13.3952C14.7073 13.0616 15.2482 13.0616 15.5818 13.3952L15.9375 13.7508C16.4757 14.289 17.3959 13.9078 17.3959 13.1467V12.6438C17.3959 12.172 17.7784 11.7895 18.2502 11.7895H18.5919ZM18.4211 19.6491C19.5062 19.6491 20.386 18.7694 20.386 17.6842C20.386 16.599 19.5062 15.7193 18.4211 15.7193C17.3359 15.7193 16.4561 16.599 16.4561 17.6842C16.4561 18.7694 17.3359 19.6491 18.4211 19.6491ZM11.7895 17.6842C11.7895 17.9333 11.8032 18.1791 11.8299 18.4211H5.36369C4.31995 18.4211 3.44765 17.5486 3.74214 16.5364C4.6738 13.3342 7.92357 10.9708 11.7895 10.9708C13.1132 10.9708 14.3648 11.2479 15.4758 11.7409C13.291 12.8257 11.7895 15.0796 11.7895 17.6842Z" fill="black"/>
</svg>
