<svg width="26" height="28" viewBox="0 0 26 28" fill="none" xmlns="http://www.w3.org/2000/svg">
<path d="M9.95715 2.44898C9.95715 1.09644 8.86987 0 7.52856 0H2.42859C1.08728 0 0 1.09644 0 2.44898V21.551C0 22.9036 1.08728 24 2.42859 24H9.93555C9.33679 22.795 9 21.4368 9 20C9 19.662 9.01868 19.3283 9.05493 19H2.125V10.6559H2.56104V18.5896H3.2876V15.3067H5.75842V18.5896H7.50244V13.1181H9.97327V15.9249C10.4229 15.0411 11.0142 14.2415 11.7172 13.5559V10.6559H14.188V11.8448C15.0583 11.4373 16.0048 11.165 17 11.0549V9.79592C17 8.44338 15.9127 7.34694 14.5714 7.34694H12.3857C11.0444 7.34694 9.95715 6.25049 9.95715 4.89796V2.44898Z" fill="black"/>
<path d="M10.9056 3.66314C10.8851 5.08777 11.9836 6.27699 13.4003 6.36356L15.8252 6.51175L10.9409 1.22449L10.9056 3.66314Z" fill="black"/>
<path d="M13.7343 19.1683C13.7343 19.6009 14.085 19.9516 14.5177 19.9516C14.7379 19.9516 14.9209 19.9211 15.0665 19.8602C15.2122 19.7993 15.3205 19.7079 15.3916 19.586C15.4644 19.4642 15.5008 19.3127 15.5008 19.1317C15.5008 18.9489 15.4644 18.7948 15.3916 18.6694C15.3205 18.5439 15.2113 18.4489 15.0638 18.3844C14.9182 18.3181 14.7344 18.2849 14.5123 18.2849C14.0826 18.2849 13.7343 18.6333 13.7343 19.0629V19.1683Z" fill="black"/>
<path fill-rule="evenodd" clip-rule="evenodd" d="M18 28C22.4183 28 26 24.4183 26 20C26 15.5817 22.4183 12 18 12C13.5817 12 10 15.5817 10 20C10 24.4183 13.5817 28 18 28ZM14.7335 17.3333C13.5445 17.3333 12.5806 18.2972 12.5806 19.4862V22.2619C12.5806 22.5805 12.8389 22.8387 13.1575 22.8387C13.4761 22.8387 13.7343 22.5805 13.7343 22.2619V21.4128C13.7343 21.1225 13.9697 20.8871 14.26 20.8871C14.4547 20.8871 14.6334 20.9947 14.7246 21.1667L15.4527 22.5416C15.5495 22.7244 15.7394 22.8387 15.9462 22.8387C16.3694 22.8387 16.6388 22.3865 16.4374 22.0144L15.7517 20.7476C15.7378 20.7219 15.7489 20.6899 15.7752 20.6774C16.0719 20.5376 16.2984 20.3369 16.4547 20.0753C16.611 19.8118 16.6891 19.4973 16.6891 19.1317C16.6891 18.7679 16.6119 18.4516 16.4573 18.1828C16.3046 17.9122 16.0816 17.7034 15.7886 17.5565C15.4973 17.4077 15.1456 17.3333 14.7335 17.3333ZM19.1426 17.8636C19.0124 17.543 18.7009 17.3333 18.3548 17.3333C17.8852 17.3333 17.5044 17.7141 17.5044 18.1837V22.2792C17.5044 22.5882 17.7549 22.8387 18.0639 22.8387C18.373 22.8387 18.6235 22.5882 18.6235 22.2792V19.2689C18.6235 19.254 18.6355 19.2419 18.6504 19.2419C18.6615 19.2419 18.6714 19.2487 18.6755 19.259L19.9406 22.4573C20.0253 22.6713 20.232 22.8118 20.4622 22.8118C20.692 22.8118 20.8986 22.6716 20.9834 22.458L22.2483 19.2724C22.2523 19.2621 22.2623 19.2554 22.2733 19.2554C22.2882 19.2554 22.3003 19.2675 22.3003 19.2824V22.2792C22.3003 22.5882 22.5508 22.8387 22.8598 22.8387C23.1688 22.8387 23.4194 22.5882 23.4194 22.2792V18.1837C23.4194 17.7141 23.0386 17.3333 22.569 17.3333C22.2229 17.3333 21.9114 17.543 21.7811 17.8636L20.5059 21.0026C20.4986 21.0205 20.4812 21.0323 20.4619 21.0323C20.4426 21.0323 20.4252 21.0205 20.4179 21.0026L19.1426 17.8636Z" fill="black"/>
</svg>
