<svg width="28" height="28" viewBox="0 0 28 28" fill="none" xmlns="http://www.w3.org/2000/svg">
<path fill-rule="evenodd" clip-rule="evenodd" d="M6.64282 0C7.82629 0 8.78577 1.00507 8.78577 2.2449V4.4898C8.78577 5.72961 9.74512 6.7347 10.9286 6.7347H12.8572C13.0734 6.7347 13.282 6.76822 13.4786 6.83056C13.8715 6.32381 14.4711 6 15.1428 6H19.6428C20.8263 6 21.7858 7.00507 21.7858 8.2449V10.4898C21.7858 11.7296 22.7451 12.7347 23.9286 12.7347H25.8572C27.0406 12.7347 28 13.7398 28 14.9796V25.7551C28 26.9949 27.0406 28 25.8572 28H15.1428C13.9594 28 13 26.9949 13 25.7551V21.9951C12.9528 21.9983 12.9052 22 12.8572 22H2.14282C0.959351 22 0 20.9949 0 19.7551V2.2449C0 1.00507 0.959351 0 2.14282 0H6.64282ZM11.8237 5.83326C10.5739 5.75391 9.60449 4.66379 9.62268 3.35788L9.65369 1.12245L13.9634 5.9691L11.8237 5.83326ZM24.8237 11.8333C23.5739 11.7539 22.6045 10.6638 22.6227 9.35788L22.6537 7.12245L26.9634 11.9691L24.8237 11.8333ZM6.85352 7.25631C7.20386 6.91842 7.77148 6.91405 8.12744 7.2465L12.2931 11.1376L12.2628 11.1668H12.3096L13.7665 12.5199C13.8068 12.5526 13.8424 12.5897 13.873 12.6302C13.9613 12.7433 14.001 12.8727 14 13C14.001 13.1273 13.9613 13.2567 13.873 13.3697C13.8424 13.4103 13.8068 13.4474 13.7665 13.4801L12.3096 14.8332H12.2628L12.2931 14.8624L8.12744 18.7535C7.77148 19.086 7.20386 19.0816 6.85352 18.7437L6.38037 18.2874C6.02124 17.941 6.02856 17.3782 6.39673 17.0406L7.16492 16.3363C7.75708 15.7932 7.35742 14.8332 6.53906 14.8332H2.90674C2.40601 14.8332 2 14.4428 2 13.9612V12.0388C2 11.5572 2.40601 11.1668 2.90674 11.1668H6.53906C7.35742 11.1668 7.75708 10.2068 7.16492 9.66373L6.39673 8.95938C6.02856 8.62178 6.02124 8.05903 6.38037 7.71261L6.85352 7.25631ZM19.8726 13.2465C20.2285 12.9141 20.7961 12.9184 21.1465 13.2563L21.6196 13.7126C21.9788 14.059 21.9714 14.6218 21.6033 14.9594L20.8351 15.6637C20.2429 16.2068 20.6426 17.1668 21.4609 17.1668H25.0933C25.594 17.1668 26 17.5572 26 18.0388V19.9612C26 20.4428 25.594 20.8332 25.0933 20.8332H21.4609C20.6426 20.8332 20.2429 21.7932 20.8351 22.3363L21.6033 23.0406C21.9714 23.3782 21.9788 23.941 21.6196 24.2874L21.1465 24.7437C20.7961 25.0816 20.2285 25.086 19.8726 24.7535L15.7069 20.8624L15.7372 20.8332H15.6904L14.2335 19.4801C14.1932 19.4474 14.1576 19.4103 14.127 19.3697C14.0387 19.2567 13.999 19.1273 14 19C13.999 18.8727 14.0387 18.7433 14.127 18.6302C14.1389 18.6144 14.1517 18.599 14.1652 18.5843C14.1862 18.5613 14.209 18.5398 14.2335 18.5199L15.6904 17.1668H15.7372L15.7069 17.1376L19.8726 13.2465Z" fill="black"/>
</svg>
