<svg width="28" height="28" viewBox="0 0 28 28" fill="none" xmlns="http://www.w3.org/2000/svg">
<path fill-rule="evenodd" clip-rule="evenodd" d="M9.95715 2.44898C9.95715 1.09644 8.86987 0 7.52856 0H2.42859C1.08728 0 0 1.09644 0 2.44898V21.551C0 22.9036 1.08728 24 2.42859 24H11V25.551C11 26.9036 12.0873 28 13.4286 28H25.5714C26.9127 28 28 26.9036 28 25.551V13.7959C28 12.4434 26.9127 11.3469 25.5714 11.3469H23.3857C22.0444 11.3469 20.9572 10.2505 20.9572 8.89796V6.44898C20.9572 5.09644 19.8699 4 18.5286 4H13.5049L10.9409 1.22449L10.9056 3.66314C10.8976 4.2227 11.0621 4.74594 11.3508 5.18032C11.1282 5.55033 11 5.98456 11 6.44898V6.90941C10.3696 6.46702 9.95715 5.73107 9.95715 4.89796V2.44898ZM17 16V14.7755H23.5044C23.8412 14.7755 24.1143 15.0496 24.1143 15.3878C24.1143 15.7259 23.8412 16 23.5044 16H17ZM17 19.1837V17.9592H23.5044C23.8412 17.9592 24.1143 18.2333 24.1143 18.5714C24.1143 18.9096 23.8412 19.1837 23.5044 19.1837H17ZM16.8618 22.3673C16.9513 22.112 17 21.8373 17 21.551V21.1429H23.5044C23.8412 21.1429 24.1143 21.417 24.1143 21.7551C24.1143 22.0932 23.8412 22.3673 23.5044 22.3673H16.8618ZM11 10.7755H4.49561C4.15881 10.7755 3.88574 11.0496 3.88574 11.3878C3.88574 11.7259 4.15881 12 4.49561 12H11V10.7755ZM11 13.9592H4.49561C4.15881 13.9592 3.88574 14.2333 3.88574 14.5714C3.88574 14.9096 4.15881 15.1837 4.49561 15.1837H11V13.9592ZM11 17.1429H4.49561C4.15881 17.1429 3.88574 17.417 3.88574 17.7551C3.88574 18.0932 4.15881 18.3673 4.49561 18.3673H11V17.1429ZM21.9056 7.66314C21.8851 9.08777 22.9836 10.277 24.4003 10.3636L26.8252 10.5117L21.9409 5.22449L21.9056 7.66314Z" fill="black"/>
</svg>
