<svg width="27" height="27" viewBox="0 0 27 27" fill="none" xmlns="http://www.w3.org/2000/svg">
<path d="M10.5981 17.9053C11.4343 17.9053 12.1121 18.487 12.1121 19.2045C12.1121 19.9221 11.4289 20.5038 10.5927 20.5038C9.5464 20.5038 9.01718 21.4986 10.0628 21.5296C10.2361 21.5347 10.4132 21.5179 10.5892 21.4766L20.9895 19.0414C21.141 19.006 21.2974 18.988 21.4545 18.988H26.0819C26.589 18.988 27 19.3407 27 19.7758C27 20.1112 26.7525 20.4099 26.3834 20.52L10.7483 25.1837C10.5619 25.2393 10.3658 25.2677 10.1684 25.2677H7.06542C6.0899 25.2677 5.29907 24.5891 5.29907 23.7519V19.4211C5.29907 18.5839 6.0899 17.9053 7.06542 17.9053H10.5981Z" fill="black"/>
<path d="M0 20.5038C0 19.6666 0.790831 18.988 1.76636 18.988H2.7757C3.75123 18.988 4.54206 19.6666 4.54206 20.5038V24.5978C4.54206 24.9566 4.20313 25.2474 3.78505 25.2474C3.36696 25.2474 3.02804 25.5383 3.02804 25.897V26.1237C3.02804 26.6077 2.57085 27.0001 2.00686 27.0001H1.51402C0.677846 27.0001 0 26.4184 0 25.7008V20.5038Z" fill="black"/>
<path fill-rule="evenodd" clip-rule="evenodd" d="M17.2138 1.82708C17.2138 0.818012 16.2689 0 15.1034 0H10.6718C9.50631 0 8.56148 0.818012 8.56148 1.82708V16.0783C8.56148 16.3426 8.62629 16.5938 8.7429 16.8206H11.7629C12.4998 16.8206 13.1078 17.2938 13.1969 17.9054H21.2233C22.3888 17.9054 23.3337 17.0874 23.3337 16.0783V7.30832C23.3337 6.29925 22.3888 5.48124 21.2233 5.48124H19.3241C18.1586 5.48124 17.2138 4.66323 17.2138 3.65416V1.82708ZM19.4272 8.03915C19.7199 8.03915 19.9572 8.24366 19.9572 8.49592C19.9572 8.74819 19.7199 8.95269 19.4272 8.95269H12.4679C12.1752 8.95269 11.938 8.74819 11.938 8.49592C11.938 8.24366 12.1752 8.03915 12.4679 8.03915H19.4272ZM12.4679 10.4144C12.1752 10.4144 11.938 10.6189 11.938 10.8711C11.938 11.1234 12.1752 11.3279 12.4679 11.3279H19.4272C19.7199 11.3279 19.9572 11.1234 19.9572 10.8711C19.9572 10.6189 19.7199 10.4144 19.4272 10.4144H12.4679ZM19.4272 12.7896C19.7199 12.7896 19.9572 12.9941 19.9572 13.2463C19.9572 13.4986 19.7199 13.7031 19.4272 13.7031H12.4679C12.1752 13.7031 11.938 13.4986 11.938 13.2463C11.938 12.9941 12.1752 12.7896 12.4679 12.7896H19.4272Z" fill="black"/>
<path d="M18.038 2.73291C18.0201 3.79577 18.9747 4.683 20.2057 4.74759L22.3128 4.85814L18.0686 0.913538L18.038 2.73291Z" fill="black"/>
</svg>
