<svg width="28" height="28" viewBox="0 0 28 28" fill="none" xmlns="http://www.w3.org/2000/svg">
<path fill-rule="evenodd" clip-rule="evenodd" d="M2.50122 0C1.11987 0 0 1.12263 0 2.50746V21.4925C0 22.8774 1.11987 24 2.50122 24H11.6598L12.9319 22.3881H3.03723C2.2478 22.3881 1.60791 21.7466 1.60791 20.9552V19.5224C1.60791 18.7311 2.2478 18.0896 3.03723 18.0896H16.3245L18.5807 15.2308V2.50746C18.5807 1.12263 17.4608 0 16.0793 0H2.50122ZM12.4808 5.54998C12.4808 6.90485 11.3729 8.00319 10.0061 8.00319C8.6394 8.00319 7.53149 6.90485 7.53149 5.54998C7.53149 4.19511 8.6394 3.09678 10.0061 3.09678C11.3729 3.09678 12.4808 4.19511 12.4808 5.54998ZM14.7433 14.4516C15.5243 14.4516 16.177 13.8114 15.9567 13.0686C15.2595 10.7188 12.828 8.98447 9.93542 8.98447C7.04297 8.98447 4.61133 10.7188 3.91431 13.0686C3.69397 13.8114 4.34656 14.4516 5.12756 14.4516H14.7433Z" fill="black"/>
<path d="M21.7321 12.3182L25.4089 15.2883L16.2455 26.7058L12.5688 23.7357L21.7321 12.3182Z" fill="black"/>
<path d="M13.254 27.9308C12.5919 28.2019 11.8914 27.636 12.0141 26.9293L12.5688 23.7357L16.2455 26.7058L13.254 27.9308Z" fill="black"/>
<path d="M24.1221 9.34028C24.4372 8.94772 25.0098 8.88572 25.4011 9.20181L27.6608 11.0273C28.0521 11.3434 28.1139 11.9178 27.7988 12.3104L26.2547 14.2344L22.578 11.2643L24.1221 9.34028Z" fill="black"/>
</svg>
