<svg width="28" height="28" viewBox="0 0 28 28" fill="none" xmlns="http://www.w3.org/2000/svg">
<path fill-rule="evenodd" clip-rule="evenodd" d="M20.2319 12C20.8722 12 21.3913 12.5191 21.3913 13.1594V13.842C21.3913 14.8749 22.6402 15.3922 23.3706 14.6618L23.8532 14.1792C24.306 13.7264 25.0401 13.7264 25.4929 14.1792L25.8208 14.5071C26.2736 14.9599 26.2736 15.694 25.8208 16.1468L25.3382 16.6294C24.6078 17.3598 25.1251 18.6087 26.158 18.6087H26.8406C27.4809 18.6087 28 19.1278 28 19.7681V20.2319C28 20.8722 27.4809 21.3913 26.8406 21.3913H26.158C25.1251 21.3913 24.6078 22.6402 25.3382 23.3706L25.8208 23.8532C26.2736 24.306 26.2736 25.0401 25.8208 25.4929L25.4929 25.8208C25.0401 26.2736 24.306 26.2736 23.8532 25.8208L23.3706 25.3382C22.6402 24.6078 21.3913 25.1251 21.3913 26.158V26.8406C21.3913 27.4809 20.8722 28 20.2319 28H19.7681C19.1278 28 18.6087 27.4809 18.6087 26.8406V26.158C18.6087 25.125 17.3598 24.6078 16.6294 25.3381L16.1468 25.8208C15.694 26.2736 14.9599 26.2736 14.5071 25.8208L14.1792 25.4929C13.7264 25.0401 13.7264 24.306 14.1792 23.8532L14.6618 23.3706C15.3922 22.6402 14.8749 21.3913 13.842 21.3913H13.1594C12.5191 21.3913 12 20.8722 12 20.2319V19.7681C12 19.1278 12.5191 18.6087 13.1594 18.6087H13.842C14.8749 18.6087 15.3922 17.3598 14.6618 16.6294L14.1792 16.1468C13.7264 15.694 13.7264 14.9599 14.1792 14.5071L14.5071 14.1792C14.9599 13.7264 15.694 13.7264 16.1468 14.1792L16.6294 14.6618C17.3598 15.3922 18.6087 14.8749 18.6087 13.842V13.1594C18.6087 12.5191 19.1278 12 19.7681 12H20.2319ZM20 22.6667C21.4728 22.6667 22.6667 21.4728 22.6667 20C22.6667 18.5272 21.4728 17.3333 20 17.3333C18.5272 17.3333 17.3333 18.5272 17.3333 20C17.3333 21.4728 18.5272 22.6667 20 22.6667Z" fill="black"/>
<path d="M25.0226 0C25.5624 0 26 0.479698 26 1.07143V13.2917C25.3021 12.6671 24.5062 12.1497 23.6382 11.7657C23.6487 11.7027 23.6542 11.6378 23.6542 11.5714V3.21429C23.6542 2.62255 23.2166 2.14286 22.6766 2.14286H3.5188C2.979 2.14286 2.54138 2.62255 2.54138 3.21429V11.5714C2.54138 12.1632 2.979 12.6429 3.5188 12.6429H14.8148C13.9825 13.2305 13.2543 13.9558 12.6635 14.7857H0.977417C0.437622 14.7857 0 14.306 0 13.7143V1.07143C0 0.479698 0.437622 0 0.977417 0H25.0226Z" fill="black"/>
<path d="M12.0081 15.8571H10.1654C9.62561 15.8571 9.18799 16.3368 9.18799 16.9286C9.18799 17.5203 9.62561 18 10.1654 18H11.223C11.3943 17.2453 11.6603 16.5266 12.0081 15.8571Z" fill="black"/>
</svg>
