<svg width="28" height="28" viewBox="0 0 28 28" fill="none" xmlns="http://www.w3.org/2000/svg">
<path d="M10.9907 18C11.8578 18 12.5607 18.6396 12.5607 19.4286C12.5607 20.2175 11.8521 20.8571 10.985 20.8571C9.89997 20.8571 9.35115 21.951 10.4355 21.985C10.6152 21.9907 10.7989 21.9721 10.9814 21.9268L21.7669 19.2493C21.924 19.2102 22.0862 19.1905 22.2491 19.1905H27.0479C27.5737 19.1905 28 19.5783 28 20.0567C28 20.4255 27.7434 20.7539 27.3605 20.875L11.1464 26.0028C10.953 26.064 10.7498 26.0952 10.545 26.0952H7.3271C6.31545 26.0952 5.49533 25.349 5.49533 24.4286V19.6667C5.49533 18.7462 6.31545 18 7.3271 18H10.9907Z" fill="black"/>
<path d="M0 20.8571C0 19.9367 0.820121 19.1905 1.83178 19.1905H2.8785C3.89016 19.1905 4.71028 19.9367 4.71028 20.8571V25.3586C4.71028 25.7531 4.3588 26.0729 3.92523 26.0729C3.49166 26.0729 3.14019 26.3927 3.14019 26.7872V27.0365C3.14019 27.5686 2.66606 28 2.08119 28H1.57009C0.702952 28 0 27.3604 0 26.5714V20.8571Z" fill="black"/>
<path fill-rule="evenodd" clip-rule="evenodd" d="M17.9983 4.49425C18.5486 4.02829 18.899 3.32592 18.899 2.54023C18.899 1.1373 17.782 0 16.404 0C15.0261 0 13.9091 1.1373 13.9091 2.54023C13.9091 3.32592 14.2594 4.02829 14.8097 4.49425H12.9187C11.0334 4.49425 9.40402 5.81074 9.00799 7.65402L7.77994 13.3698C7.37861 15.2378 8.80242 17 10.713 17H22.2027C24.1402 17 25.5696 15.1907 25.1213 13.3058L23.7565 7.5686C23.3278 5.76633 21.7177 4.49425 19.8651 4.49425H17.9983ZM18.0673 2.54023C18.0673 3.47552 17.3227 4.23372 16.404 4.23372C15.4854 4.23372 14.7407 3.47552 14.7407 2.54023C14.7407 1.60494 15.4854 0.846745 16.404 0.846745C17.3227 0.846745 18.0673 1.60494 18.0673 2.54023Z" fill="black"/>
</svg>
