<svg width="28" height="28" viewBox="0 0 28 28" fill="none" xmlns="http://www.w3.org/2000/svg">
<path fill-rule="evenodd" clip-rule="evenodd" d="M3.38708 0C1.51648 0 0 1.53169 0 3.42116C0 3.79905 0.303345 4.10538 0.677368 4.10538H5.32263C5.69666 4.10538 6 4.41173 6 4.78962V22.1529C6 22.7588 6.72217 23.0658 7.151 22.6422L8.12634 21.6789C8.38965 21.4189 8.8103 21.4189 9.07361 21.6789L11.2264 23.805C11.4147 23.991 11.6835 24.0439 11.9176 23.9639C11.33 22.7679 11 21.4225 11 20C11 17.3002 12.1887 14.8781 14.0714 13.2285H10.0541C9.73914 13.2285 9.48389 12.9732 9.48389 12.6583C9.48389 12.3434 9.73914 12.0881 10.0541 12.0881H15.7067C16.9827 11.3942 18.4453 11 20 11C20.338 11 20.6716 11.0186 21 11.0549V3.42116C21 1.53169 19.4835 0 17.6129 0H3.38708ZM17.7201 5.93C18.035 5.93 18.2903 6.18529 18.2903 6.50019C18.2903 6.8151 18.035 7.07039 17.7201 7.07039H10.0541C9.73914 7.07039 9.48389 6.8151 9.48389 6.50019C9.48389 6.18529 9.73914 5.93 10.0541 5.93H17.7201ZM10.0541 8.895C9.73914 8.895 9.48389 9.15028 9.48389 9.46519C9.48389 9.78011 9.73914 10.0354 10.0541 10.0354H17.7201C18.035 10.0354 18.2903 9.78011 18.2903 9.46519C18.2903 9.15028 18.035 8.895 17.7201 8.895H10.0541Z" fill="black"/>
<path d="M15.7343 19.1683C15.7343 19.6009 16.085 19.9516 16.5177 19.9516C16.7379 19.9516 16.9209 19.9211 17.0665 19.8602C17.2122 19.7993 17.3205 19.7079 17.3916 19.586C17.4644 19.4642 17.5008 19.3127 17.5008 19.1317C17.5008 18.9489 17.4644 18.7948 17.3916 18.6694C17.3205 18.5439 17.2113 18.4489 17.0638 18.3844C16.9182 18.3181 16.7344 18.2849 16.5123 18.2849C16.0826 18.2849 15.7343 18.6333 15.7343 19.0629V19.1683Z" fill="black"/>
<path fill-rule="evenodd" clip-rule="evenodd" d="M20 28C24.4183 28 28 24.4183 28 20C28 15.5817 24.4183 12 20 12C15.5817 12 12 15.5817 12 20C12 24.4183 15.5817 28 20 28ZM16.7335 17.3333C15.5445 17.3333 14.5806 18.2972 14.5806 19.4862V22.2619C14.5806 22.5805 14.8389 22.8387 15.1575 22.8387C15.4761 22.8387 15.7343 22.5805 15.7343 22.2619V21.4128C15.7343 21.1225 15.9697 20.8871 16.26 20.8871C16.4547 20.8871 16.6334 20.9947 16.7246 21.1667L17.4527 22.5416C17.5495 22.7244 17.7394 22.8387 17.9462 22.8387C18.3694 22.8387 18.6388 22.3865 18.4374 22.0144L17.7517 20.7476C17.7378 20.7219 17.7489 20.6899 17.7752 20.6774C18.0719 20.5376 18.2984 20.3369 18.4547 20.0753C18.611 19.8118 18.6891 19.4973 18.6891 19.1317C18.6891 18.7679 18.6119 18.4516 18.4573 18.1828C18.3046 17.9122 18.0816 17.7034 17.7886 17.5565C17.4973 17.4077 17.1456 17.3333 16.7335 17.3333ZM21.1426 17.8636C21.0124 17.543 20.7009 17.3333 20.3548 17.3333C19.8852 17.3333 19.5044 17.7141 19.5044 18.1837V22.2792C19.5044 22.5882 19.7549 22.8387 20.0639 22.8387C20.373 22.8387 20.6235 22.5882 20.6235 22.2792V19.2689C20.6235 19.254 20.6355 19.2419 20.6504 19.2419C20.6615 19.2419 20.6714 19.2487 20.6755 19.259L21.9406 22.4573C22.0253 22.6713 22.232 22.8118 22.4622 22.8118C22.692 22.8118 22.8986 22.6716 22.9834 22.458L24.2483 19.2724C24.2523 19.2621 24.2623 19.2554 24.2733 19.2554C24.2882 19.2554 24.3003 19.2675 24.3003 19.2824V22.2792C24.3003 22.5882 24.5508 22.8387 24.8598 22.8387C25.1688 22.8387 25.4194 22.5882 25.4194 22.2792V18.1837C25.4194 17.7141 25.0386 17.3333 24.569 17.3333C24.2229 17.3333 23.9114 17.543 23.7811 17.8636L22.5059 21.0026C22.4986 21.0205 22.4812 21.0323 22.4619 21.0323C22.4426 21.0323 22.4252 21.0205 22.4179 21.0026L21.1426 17.8636Z" fill="black"/>
</svg>
