<svg width="28" height="28" viewBox="0 0 28 28" fill="none" xmlns="http://www.w3.org/2000/svg">
<path d="M5.04918 3.93388C5.04918 3.29488 5.56295 2.77686 6.19672 2.77686H9.40984C10.0436 2.77686 10.5574 3.29488 10.5574 3.93388V13.1901H5.04918V3.93388Z" fill="black"/>
<path fill-rule="evenodd" clip-rule="evenodd" d="M15.377 0C14.6165 0 14 0.621618 14 1.38843V5.55372C14 6.32053 14.6165 6.94215 15.377 6.94215H19.0492V10.1818H11.7049V14.1157H3.90164V10.1818H1.60656C0.719286 10.1818 0 10.907 0 11.8017V22.4463H28V11.8017C28 10.907 27.2807 10.1818 26.3934 10.1818H22.9508V6.94215H26.623C27.3835 6.94215 28 6.32053 28 5.55372V1.38843C28 0.621618 27.3835 0 26.623 0H15.377ZM14 13.4215C14 13.0381 14.3083 12.7273 14.6885 12.7273H15.8361C16.2163 12.7273 16.5246 13.0381 16.5246 13.4215V14.5785C16.5246 14.9619 16.2163 15.2727 15.8361 15.2727H14.6885C14.3083 15.2727 14 14.9619 14 14.5785V13.4215ZM18.3607 13.4215C18.3607 13.0381 18.6689 12.7273 19.0492 12.7273H20.1967C20.577 12.7273 20.8852 13.0381 20.8852 13.4215V14.5785C20.8852 14.9619 20.577 15.2727 20.1967 15.2727H19.0492C18.6689 15.2727 18.3607 14.9619 18.3607 14.5785V13.4215ZM24.5574 12.7273C24.9376 12.7273 25.2459 13.0381 25.2459 13.4215V14.5785C25.2459 14.9619 24.9376 15.2727 24.5574 15.2727H23.4098C23.0296 15.2727 22.7213 14.9619 22.7213 14.5785V13.4215C22.7213 13.0381 23.0296 12.7273 23.4098 12.7273H24.5574ZM14 18.0496C14 17.6662 14.3083 17.3554 14.6885 17.3554H15.8361C16.2163 17.3554 16.5246 17.6662 16.5246 18.0496V19.2066C16.5246 19.59 16.2163 19.9008 15.8361 19.9008H14.6885C14.3083 19.9008 14 19.59 14 19.2066V18.0496ZM11.0164 17.3554C11.3967 17.3554 11.7049 17.6662 11.7049 18.0496V19.2066C11.7049 19.59 11.3967 19.9008 11.0164 19.9008H4.36066C3.98039 19.9008 3.67213 19.59 3.67213 19.2066V18.0496C3.67213 17.6662 3.98039 17.3554 4.36066 17.3554H11.0164ZM18.3607 18.0496C18.3607 17.6662 18.6689 17.3554 19.0492 17.3554H20.1967C20.577 17.3554 20.8852 17.6662 20.8852 18.0496V19.2066C20.8852 19.59 20.577 19.9008 20.1967 19.9008H19.0492C18.6689 19.9008 18.3607 19.59 18.3607 19.2066V18.0496ZM24.5574 17.3554C24.9376 17.3554 25.2459 17.6662 25.2459 18.0496V19.2066C25.2459 19.59 24.9376 19.9008 24.5574 19.9008H23.4098C23.0296 19.9008 22.7213 19.59 22.7213 19.2066V18.0496C22.7213 17.6662 23.0296 17.3554 23.4098 17.3554H24.5574ZM15.8361 2.54545C15.8361 1.90645 16.3498 1.38843 16.9836 1.38843H24.7869C25.4207 1.38843 25.9344 1.90645 25.9344 2.54545V4.16529C25.9344 4.80429 25.4207 5.32231 24.7869 5.32231H16.9836C16.3498 5.32231 15.8361 4.80429 15.8361 4.16529V2.54545Z" fill="black"/>
<path d="M28 24.0661H0V26.3802C0 27.2748 0.719286 28 1.60656 28H26.3934C27.2807 28 28 27.2748 28 26.3802V24.0661Z" fill="black"/>
</svg>
